<?xml version="1.0" encoding="utf-8"?>
<!-- Generator: Adobe Illustrator 16.0.0, SVG Export Plug-In . SVG Version: 6.00 Build 0)  -->
<!DOCTYPE svg PUBLIC "-//W3C//DTD SVG 1.1//EN" "http://www.w3.org/Graphics/SVG/1.1/DTD/svg11.dtd">
<svg version="1.1" id="Layer_1" xmlns="http://www.w3.org/2000/svg" xmlns:xlink="http://www.w3.org/1999/xlink" x="0px" y="0px"
	 width="120.719px" height="40px" viewBox="-43.719 -15.555 120.719 40" enable-background="new -43.719 -15.555 120.719 40"
	 xml:space="preserve">
<g>
	<path opacity="0.7775" fill="#FFFFFF" enable-background="new    " d="M-26.318,4.104c-0.573,0-1.019-0.453-1.019-1.019
		s0.446-1.024,1.019-1.024l0,0c0.565,0,1.011,0.458,1.011,1.024S-25.752,4.104-26.318,4.104L-26.318,4.104z"/>
	<path opacity="0.7559" fill="#939393" enable-background="new    " d="M-26.318-4.512c0.565,0,1.125,0.056,1.668,0.184
		l-1.449,6.417c-0.071-0.021-0.148-0.028-0.22-0.028V-4.512L-26.318-4.512z"/>
	<path opacity="0.7559" fill="#A0A0A0" enable-background="new    " d="M-26.318-11.51c1.074,0,2.156,0.12,3.208,0.354l-1.54,6.829
		c-0.544-0.127-1.103-0.184-1.668-0.184V-11.51z"/>
	<path opacity="0.7714" fill="#787878" enable-background="new    " d="M-24.536-4.831c3.541,0.799,6.114,3.846,6.326,7.471
		l-7.097,0.396c-0.021-0.459-0.339-0.841-0.791-0.947L-24.536-4.831z"/>
	<path opacity="0.8333" fill="#828282" enable-background="new    " d="M-22.395-14.322c1.287,0.289,2.544,0.721,3.732,1.286
		l-4.178,8.794c-0.537-0.255-1.102-0.461-1.696-0.588L-22.395-14.322z"/>
	<path opacity="0.875" fill="#828282" enable-background="new    " d="M-18.033-14.365c0.861,0.41,1.688,0.876,2.48,1.407
		l-6.241,9.308c-0.332-0.225-0.678-0.424-1.046-0.592L-18.033-14.365z"/>
	<path opacity="0.8889" fill="#828282" enable-background="new    " d="M-15.27-13.361c0.205,0.134,0.396,0.282,0.594,0.417
		l-6.864,9.464c-0.092-0.057-0.176-0.12-0.255-0.17L-15.27-13.361z"/>
	<path opacity="0.7083" fill="#828282" enable-background="new    " d="M-18.394-7.828c0.544,0.395,1.053,0.82,1.519,1.286
		l-3.76,3.832c-0.275-0.276-0.586-0.538-0.904-0.771L-18.394-7.828z"/>
	<path opacity="0.8796" fill="#828282" enable-background="new    " d="M-12.67-10.818c1.026,1.012,1.944,2.128,2.722,3.344
		l-9.549,6.163c-0.325-0.509-0.707-0.975-1.138-1.398L-12.67-10.818z"/>
	<path opacity="0.7963" fill="#828282" enable-background="new    " d="M-12.408-5.884c0.325,0.516,0.629,1.046,0.898,1.59
		l-7.549,3.769c-0.134-0.276-0.283-0.538-0.438-0.786L-12.408-5.884z"/>
	<path opacity="0.6465" fill="#828282" enable-background="new    " d="M-16.146-1.975c0.692,1.385,1.088,2.884,1.18,4.432
		L-18.21,2.64c-0.063-1.102-0.354-2.176-0.849-3.166L-16.146-1.975z"/>
	<path opacity="0.8094" fill="#5C5C5C" enable-background="new    " d="M-16.945,2.563c0.283,5.188-3.683,9.606-8.864,9.894
		c-0.968,0.058-1.957-0.027-2.913-0.303l2.143-8.079c0.544,0.148,1.102-0.177,1.251-0.728c0.014-0.1,0.021-0.205,0.021-0.312
		L-16.945,2.563z"/>
	<path opacity="0.6944" fill="#616161" enable-background="new    " d="M-12.026,2.295c0.022,0.352,0.029,0.706,0.022,1.06
		l-4.935-0.099c0-0.22,0-0.452-0.007-0.693L-12.026,2.295z"/>
	<path opacity="0.6667" fill="#686868" enable-background="new    " d="M-7.947,2.068c0.021,0.227,0.028,0.452,0.028,0.679
		l-4.084,0.078c0-0.177-0.009-0.361-0.022-0.529L-7.947,2.068z"/>
	<path opacity="0.7222" fill="#686868" enable-background="new    " d="M-5.94,2.71c0,0.248,0,0.502,0,0.757l-6.063-0.113
		c0-0.177,0-0.354,0-0.53L-5.94,2.71z"/>
	<path opacity="0.8651" fill="#616161" enable-background="new    " d="M-6.004,3.468C-6.039,5.22-6.301,6.967-6.774,8.648
		l-10.525-2.99c0.227-0.777,0.348-1.59,0.361-2.402L-6.004,3.468z"/>
	<path opacity="0.7222" fill="#616161" enable-background="new    " d="M-11.616,7.272c-0.057,0.183-0.113,0.358-0.163,0.541
		l-5.619-1.829c0.042-0.107,0.077-0.213,0.098-0.326L-11.616,7.272z"/>
	<path opacity="0.8148" fill="#616161" enable-background="new    " d="M-8.697,8.816c-0.206,0.65-0.453,1.288-0.735,1.925
		l-8.341-3.782c0.142-0.319,0.269-0.643,0.375-0.975L-8.697,8.816z"/>
	<path opacity="0.75" fill="#616161" enable-background="new    " d="M-11.517,9.794c-0.156,0.366-0.332,0.721-0.53,1.074
		l-6.029-3.295c0.106-0.198,0.211-0.401,0.303-0.614L-11.517,9.794z"/>
	<path opacity="0.8611" fill="#616161" enable-background="new    " d="M-8.605,12.74c-0.233,0.424-0.487,0.878-0.756,1.272
		l-9.069-5.832c0.12-0.195,0.233-0.395,0.354-0.607L-8.605,12.74z"/>
	<path opacity="0.8472" fill="#616161" enable-background="new    " d="M-9.785,13.76c-0.517,0.818-1.11,1.58-1.747,2.318
		l-7.731-6.801c0.303-0.338,0.572-0.722,0.833-1.097L-9.785,13.76z"/>
	<path opacity="0.8333" fill="#616161" enable-background="new    " d="M-11.905,15.738c-0.623,0.733-1.294,1.384-2.015,1.978
		l-6.333-7.471c0.346-0.283,0.677-0.606,0.99-0.968L-11.905,15.738z"/>
	<path opacity="0.9074" fill="#616161" enable-background="new    " d="M-12.224,19.745c-0.608,0.536-1.259,1.018-1.923,1.472
		l-6.933-10.335c0.282-0.198,0.566-0.408,0.827-0.637L-12.224,19.745z"/>
	<path opacity="0.9074" fill="#616161" enable-background="new    " d="M-14.147,21.217c-0.671,0.424-1.363,0.846-2.077,1.213
		l-5.761-11.026c0.304-0.154,0.608-0.323,0.905-0.521L-14.147,21.217z"/>
	<path opacity="0.7639" fill="#616161" enable-background="new    " d="M-18.586,17.914c-0.728,0.397-1.49,0.734-2.261,0.99
		l-2.403-6.948c0.431-0.154,0.855-0.326,1.265-0.553L-18.586,17.914z"/>
	<path opacity="0.6944" fill="#616161" enable-background="new    " d="M-21.639,16.614c-0.671,0.226-1.363,0.424-2.057,0.565
		l-0.905-4.87c0.459-0.07,0.905-0.198,1.35-0.354L-21.639,16.614z"/>
	<path opacity="0.8667" fill="#616161" enable-background="new    " d="M-22.579,23.109c-1.229,0.227-2.481,0.341-3.739,0.341
		V12.486c0.572,0,1.153-0.057,1.718-0.177L-22.579,23.109z"/>
	<path opacity="0.7302" fill="#616161" enable-background="new    " d="M-26.318,18.648c-1.342,0-2.686-0.169-3.987-0.508
		l1.583-5.986c0.778,0.218,1.591,0.332,2.404,0.332V18.648z"/>
	<path opacity="0.7384" fill="#6C6C6C" enable-background="new    " d="M-28.113,9.87c-2.672-0.699-4.679-2.903-5.125-5.625
		l5.91-0.99c0.07,0.396,0.36,0.713,0.749,0.819L-28.113,9.87z"/>
	<path opacity="0.8111" fill="#7E7E7E" enable-background="new    " d="M-30.388,18.45c-0.955-0.226-1.874-0.593-2.764-0.987
		l3.817-8.045c0.396,0.198,0.797,0.348,1.223,0.452L-30.388,18.45z"/>
	<path opacity="0.7889" fill="#7E7E7E" enable-background="new    " d="M-32.812,16.755c-0.842-0.396-1.647-0.876-2.396-1.415
		l4.757-6.563c0.353,0.238,0.728,0.465,1.117,0.642L-32.812,16.755z"/>
	<path opacity="0.7222" fill="#7E7E7E" enable-background="new    " d="M-33.859,13.475c-0.262-0.195-0.502-0.395-0.75-0.594
		l3.746-4.432c0.134,0.106,0.269,0.221,0.41,0.327L-33.859,13.475z"/>
	<path opacity="0.7889" fill="#7E7E7E" enable-background="new    " d="M-34.907,13.21c-0.19-0.171-0.179-0.13-0.37-0.325
		l4.224-4.604c0.07,0.049,0.127,0.105,0.19,0.168L-34.907,13.21z"/>
	<path opacity="0.6778" fill="#7E7E7E" enable-background="new    " d="M-33.944,11.447c-0.51-0.468-0.976-0.989-1.401-1.548
		l3.422-2.581c0.254,0.349,0.551,0.667,0.87,0.963L-33.944,11.447z"/>
	<path opacity="0.6667" fill="#7E7E7E" enable-background="new    " d="M-35.039,9.674c-0.164-0.212-0.312-0.433-0.46-0.659
		l3.28-2.118c0.084,0.14,0.197,0.282,0.297,0.422L-35.039,9.674z"/>
	<path opacity="0.6667" fill="#7E7E7E" enable-background="new    " d="M-35.5,9.015c-0.077-0.113-0.148-0.233-0.226-0.345
		l3.365-1.994c0.05,0.071,0.092,0.15,0.142,0.221L-35.5,9.015z"/>
	<path opacity="0.6389" fill="#7E7E7E" enable-background="new    " d="M-34.913,8.188c-0.126-0.203-0.233-0.433-0.354-0.655
		l2.666-1.317c0.07,0.158,0.155,0.312,0.24,0.46L-34.913,8.188z"/>
	<path opacity="0.746" fill="#7E7E7E" enable-background="new    " d="M-38.539,9.18C-39.062,8.117-39.45,7-39.69,5.843l6.495-1.337
		c0.121,0.595,0.318,1.167,0.595,1.71L-38.539,9.18z"/>
	<path opacity="0.6111" fill="#7E7E7E" enable-background="new    " d="M-35.181,4.917c-0.028-0.114-0.056-0.219-0.063-0.326
		l2.007-0.345c0.007,0.092,0.021,0.176,0.042,0.26L-35.181,4.917z"/>
	<path opacity="0.7791" fill="#9D9D9D" enable-background="new    " d="M-34.58,4.471c-0.736-4.382,2.078-8.574,6.417-9.555
		l1.619,7.173c-0.523,0.121-0.875,0.63-0.784,1.167L-34.58,4.471z"/>
	<path opacity="0.7222" fill="#AAAAAA" enable-background="new    " d="M-40.355,5.447c-0.155-0.863-0.219-1.748-0.197-2.623
		l5.866,0.113c-0.021,0.509,0.015,1.024,0.107,1.533L-40.355,5.447z"/>
	<path opacity="0.7407" fill="#AAAAAA" enable-background="new    " d="M-41.196,2.811c0.014-0.552,0.05-1.089,0.12-1.641
		l6.453,0.841c-0.048,0.304-0.063,0.607-0.063,0.926L-41.196,2.811z"/>
	<path opacity="0.8056" fill="#AAAAAA" enable-background="new    " d="M-43.316,0.874c0.211-1.675,0.685-3.307,1.378-4.856
		l7.987,3.612c-0.339,0.756-0.566,1.562-0.673,2.382L-43.316,0.874z"/>
	<path opacity="0.8611" fill="#AAAAAA" enable-background="new    " d="M-43.719-4.789c0.58-1.293,1.301-2.508,2.148-3.633
		l8.565,6.46c-0.367,0.495-0.692,1.025-0.946,1.59L-43.719-4.789z"/>
	<path opacity="0.7778" fill="#AAAAAA" enable-background="new    " d="M-39.224-6.654c0.48-0.643,1.011-1.237,1.577-1.802
		l5.464,5.57c-0.297,0.289-0.573,0.594-0.821,0.925L-39.224-6.654z"/>
	<path opacity="0.8704" fill="#AAAAAA" enable-background="new    " d="M-39.93-10.775c1.025-1.011,2.154-1.902,3.378-2.658
		l5.824,9.401c-0.53,0.325-1.018,0.713-1.455,1.146L-39.93-10.775z"/>
	<path opacity="0.6778" fill="#AAAAAA" enable-background="new    " d="M-33.005-7.708c0.658-0.417,1.365-0.771,2.093-1.053
		l1.569,4.036c-0.488,0.19-0.954,0.417-1.386,0.692L-33.005-7.708z"/>
	<path opacity="0.6944" fill="#AAAAAA" enable-background="new    " d="M-31.118-9.291c0.602-0.232,1.238-0.423,1.881-0.572
		l1.074,4.778c-0.41,0.092-0.792,0.219-1.18,0.36L-31.118-9.291z"/>
	<path opacity="0.7559" fill="#D8D8D8" enable-background="new    " d="M-27.992-4.328c0.544-0.127,1.116-0.184,1.674-0.184v6.573
		c-0.078,0-0.155,0.007-0.226,0.028L-27.992-4.328z"/>
	<path opacity="0.7559" fill="#C2C2C2" enable-background="new    " d="M-29.534-11.157c1.053-0.233,2.135-0.354,3.216-0.354v6.999
		c-0.558,0-1.13,0.056-1.674,0.184L-29.534-11.157z"/>
</g>
<path opacity="0.8611" fill="#FFFFFF" enable-background="new    " d="M-24.244-0.142v-1.209c-0.398-0.17-0.888-0.254-1.47-0.254
	c-0.622,0-1.196,0.12-1.735,0.358c-0.536,0.233-1.015,0.563-1.42,0.986c-0.41,0.421-0.733,0.905-0.966,1.464
	c-0.233,0.558-0.353,1.143-0.353,1.765c0,0.621,0.12,1.212,0.353,1.764c0.233,0.561,0.55,1.042,0.962,1.454
	c0.41,0.404,0.883,0.729,1.425,0.969c0.535,0.238,1.114,0.358,1.735,0.358c0.803,0,1.646-0.258,2.53-0.774l1.213,1.771
	c-0.73,0.423-1.373,0.706-1.944,0.889c-0.563,0.159-1.167,0.251-1.799,0.251c-0.922,0-1.788-0.183-2.602-0.525
	c-0.811-0.352-1.515-0.829-2.119-1.436c-0.604-0.603-1.083-1.309-1.429-2.12c-0.349-0.808-0.524-1.678-0.524-2.6
	c0-0.918,0.176-1.788,0.524-2.603c0.346-0.822,0.825-1.526,1.429-2.132c0.604-0.603,1.309-1.081,2.119-1.438
	c0.813-0.354,1.68-0.531,2.602-0.531c0.632,0,1.236,0.08,1.799,0.239c0.571,0.165,1.169,0.427,1.795,0.798v2.556H-24.244z
	 M-21.591,2.141h3.366v4.49c0.02,0.227,0.098,0.421,0.245,0.581c0.143,0.159,0.388,0.248,0.73,0.267c0.25,0,0.496-0.048,0.727-0.137
	c0.235-0.092,0.44-0.211,0.618-0.37c0.18-0.159,0.323-0.341,0.426-0.558c0.108-0.212,0.16-0.438,0.16-0.69V4.272h-1.161V2.141h3.366
	v5.388h1.092v1.973h-3.297V8.224l0.423-0.786c-0.042,0.73-0.354,1.277-0.941,1.662c-0.587,0.367-1.229,0.559-1.937,0.559
	c-0.791,0-1.422-0.217-1.896-0.648c-0.474-0.433-0.723-0.989-0.751-1.687V4.272h-1.169V2.141z M-11.498,7.371h1.345v-9.722h-1.167
	v-2.13h3.367V7.371h1.114v2.131h-4.658V7.371z M-4.841-2.163h2.198v4.304h1.732v2.164h-1.732v3.066h1.322v2.131h-3.52V4.305h-1.486
	V2.141h1.486V-2.163z M-0.386,7.371h1.229V4.272h-1.229V2.141h3.438v5.23h1.21v2.131h-4.648V7.371z M0.686-0.05
	c0-0.376,0.135-0.69,0.386-0.935c0.274-0.246,0.57-0.37,0.911-0.37c0.319,0,0.593,0.125,0.864,0.37C3.1-0.74,3.235-0.426,3.235-0.05
	c0,0.38-0.136,0.689-0.389,0.929C2.575,1.116,2.302,1.237,1.982,1.237c-0.341,0-0.637-0.121-0.911-0.358
	C0.82,0.64,0.686,0.331,0.686-0.05z M4.784,2.141h4.646v2.131H8.795c0.091,0.152,0.274,0.495,0.57,1.024
	c0.296,0.53,0.409,0.701,0.339,0.506c-0.067,0.195,0.048,0.031,0.344-0.506c0.273-0.529,0.455-0.872,0.546-1.024H9.819V2.141h4.786
	v2.131h-1.619c-0.431,0.827-0.91,1.704-1.435,2.638c-0.502,0.926-1.114,2.056-1.848,3.397C8.978,8.966,8.36,7.836,7.838,6.896
	c-0.5-0.932-0.979-1.811-1.436-2.624H4.784V2.141z M15.126,5.834c0-0.514,0.093-1.003,0.296-1.47
	c0.207-0.469,0.479-0.878,0.847-1.232c0.341-0.347,0.751-0.625,1.23-0.836c0.478-0.205,0.999-0.314,1.547-0.314
	c0.366,0,0.683,0.058,1.002,0.159c0.296,0.104,0.547,0.218,0.773,0.343c0.23,0.125,0.412,0.262,0.593,0.416
	c0.16,0.148,0.113,0.296-0.113,0.443c-0.249-0.155-0.366-0.302-0.339-0.438c0.021-0.142,0.043-0.398,0.043-0.764h1.936v5.23h1.346
	v2.131h-3.372V8.783l0.387-0.354c0.184,0.173,0.227,0.33,0.07,0.446c-0.138,0.135-0.319,0.249-0.526,0.363
	c-0.227,0.114-0.479,0.203-0.797,0.295c-0.295,0.092-0.613,0.125-1.002,0.125c-0.548,0-1.069-0.101-1.547-0.306
	c-0.479-0.195-0.89-0.478-1.23-0.82c-0.367-0.354-0.64-0.763-0.847-1.225C15.219,6.846,15.126,6.357,15.126,5.834z M17.336,5.815
	c0,0.478,0.163,0.875,0.479,1.195c0.318,0.326,0.73,0.484,1.23,0.484c0.502,0,0.909-0.158,1.232-0.484
	c0.316-0.32,0.476-0.718,0.476-1.195c0-0.489-0.159-0.888-0.476-1.196c-0.299-0.314-0.708-0.466-1.232-0.466
	s-0.935,0.152-1.23,0.466C17.499,4.927,17.336,5.327,17.336,5.815z M26.291-2.163h2.212v4.304h1.728v2.164h-1.728v3.066h1.316v2.131
	h-3.528V4.305H24.81V2.141h1.481V-2.163z M34.65,4.153c-0.499,0-0.909,0.142-1.206,0.439c-0.32,0.288-0.479,0.47-0.479,0.551
	c0.207-0.081,0.593-0.215,1.141-0.425c0.545-0.206,0.932-0.35,1.163-0.436c0.09,0.105,0.043,0.111-0.118,0.013
	C34.994,4.198,34.832,4.153,34.65,4.153z M38.184,5.512c-1.004,0.372-1.893,0.707-2.688,0.998c-0.798,0.295-1.438,0.535-1.938,0.718
	c-0.047-0.063,0.044-0.035,0.273,0.084c0.25,0.119,0.501,0.184,0.819,0.184c0.435,0,0.888-0.249,1.344-0.752l1.39,1.629
	c-0.477,0.489-0.933,0.818-1.367,1.016c-0.409,0.18-0.866,0.271-1.366,0.271c-0.545,0-1.049-0.101-1.526-0.306
	c-0.479-0.195-0.889-0.478-1.253-0.82c-0.34-0.354-0.615-0.763-0.819-1.225c-0.203-0.462-0.296-0.958-0.296-1.492
	c0-0.523,0.093-1.021,0.296-1.486c0.204-0.473,0.479-0.877,0.819-1.225c0.364-0.341,0.773-0.615,1.253-0.815
	c0.478-0.204,0.981-0.307,1.526-0.307c0.41,0,0.821,0.087,1.183,0.25c0.39,0.171,0.731,0.393,1.027,0.683
	c0.273,0.287,0.548,0.623,0.753,1.015C37.84,4.317,38.023,4.847,38.184,5.512z M52.92-3.591h2.528v2.122h-1.522v8.841h1.522v2.131
	H50.44V7.371h1.273V0.81c0.023-0.104,0.023-0.2,0.023-0.29c0.02-0.098-0.023,0.273-0.137,1.11c0.455-0.638,0.636-0.889,0.546-0.747
	c-0.091,0.144-0.183,0.279-0.273,0.412c-0.706,1.007-1.459,1.992-2.232,2.949c-0.776,0.962-1.616,2.061-2.55,3.292l-5.035-6.579
	l-0.022-0.689c0.249,0.069,0.387,0.154,0.387,0.246c0,0.096,0.023,0.192,0.023,0.296v6.561h1.274v2.131h-5.012V7.371h1.55V-1.47
	h-1.55v-2.122h2.526c1.098,1.401,2.143,2.748,3.124,4.049c1.002,1.303,1.911,2.482,2.734,3.536c0.819-1.054,1.73-2.233,2.71-3.536
	C50.803-0.844,51.851-2.19,52.92-3.591z M59.892,4.153c-0.501,0-0.909,0.142-1.206,0.439c-0.294,0.288-0.457,0.47-0.457,0.551
	c0.206-0.081,0.57-0.215,1.117-0.425c0.546-0.206,0.933-0.35,1.162-0.436c0.091,0.105,0.044,0.111-0.113,0.013
	C60.234,4.198,60.074,4.153,59.892,4.153z M63.446,5.512c-1.002,0.372-1.916,0.707-2.712,0.998
	c-0.794,0.295-1.434,0.535-1.936,0.718c-0.043-0.063,0.043-0.035,0.273,0.084c0.249,0.119,0.522,0.184,0.819,0.184
	c0.434,0,0.891-0.249,1.366-0.752l1.393,1.629c-0.502,0.489-0.959,0.818-1.366,1.016c-0.435,0.18-0.89,0.271-1.393,0.271
	c-0.546,0-1.05-0.101-1.523-0.306c-0.479-0.195-0.893-0.478-1.231-0.82c-0.364-0.354-0.639-0.763-0.845-1.225
	c-0.203-0.462-0.296-0.958-0.296-1.492c0-0.523,0.093-1.021,0.296-1.486c0.206-0.473,0.48-0.877,0.845-1.225
	c0.339-0.341,0.753-0.615,1.231-0.815c0.474-0.204,0.978-0.307,1.523-0.307c0.413,0,0.82,0.087,1.209,0.25
	c0.364,0.171,0.706,0.393,1.001,0.683c0.295,0.287,0.549,0.623,0.775,1.015C63.08,4.317,63.264,4.847,63.446,5.512z"/>
</svg>
